<?xml version="1.0" standalone="no"?>
<!DOCTYPE svg PUBLIC "-//W3C//DTD SVG 20010904//EN"
 "http://www.w3.org/TR/2001/REC-SVG-20010904/DTD/svg10.dtd">
<svg version="1.0" xmlns="http://www.w3.org/2000/svg"
 width="402.000000pt" height="148.000000pt" viewBox="0 0 402.000000 148.000000"
 preserveAspectRatio="xMidYMid meet">

<g transform="translate(0.000000,148.000000) scale(0.100000,-0.100000)"
fill="#000000" stroke="none">
<path d="M93 1433 c-61 -3 -73 -7 -72 -21 0 -10 3 -12 6 -4 2 6 16 12 30 12
24 0 25 -1 21 -80 -3 -74 -2 -80 17 -80 19 0 20 6 17 81 l-4 82 31 -5 c21 -3
31 0 31 9 0 7 -1 12 -2 11 -2 -1 -36 -4 -75 -5z"/>
<path d="M2360 1421 c-5 -11 -10 -27 -10 -36 0 -8 -7 -18 -16 -22 -11 -4 -12
-8 -4 -13 17 -10 -8 -128 -32 -152 -18 -18 -13 -24 8 -10 17 11 31 43 43 102
7 30 17 58 24 62 9 6 9 8 -1 8 -14 0 -7 45 11 68 6 8 6 12 -1 12 -6 0 -16 -9
-22 -19z"/>
<path d="M2410 1430 c0 -5 5 -10 10 -10 6 0 10 5 10 10 0 6 -4 10 -10 10 -5 0
-10 -4 -10 -10z"/>
<path d="M205 1345 c0 -79 2 -85 20 -85 18 0 20 5 17 40 l-4 40 47 0 47 0 -4
-40 c-3 -37 -2 -40 22 -39 14 0 19 3 13 6 -17 6 -17 135 -1 151 9 9 4 12 -23
11 -18 0 -28 -3 -21 -6 6 -2 12 -20 12 -39 0 -34 0 -34 -46 -34 l-46 0 4 40
c3 35 1 40 -17 40 -18 0 -20 -6 -20 -85z"/>
<path d="M408 1418 c16 -16 16 -130 0 -147 -11 -10 0 -11 51 -9 47 2 66 7 69
18 4 12 2 13 -9 3 -7 -7 -28 -13 -46 -13 -31 0 -33 2 -33 36 0 35 1 36 35 32
21 -2 35 0 35 7 0 7 -14 9 -35 7 -34 -4 -35 -4 -35 33 l0 37 40 -4 c22 -2 40
0 40 4 0 5 -28 8 -62 8 -48 0 -59 -3 -50 -12z"/>
<path d="M638 1378 c4 -79 10 -96 37 -114 22 -14 27 -14 55 -1 16 9 30 11 30
6 0 -5 10 -9 22 -9 17 0 19 3 10 12 -7 7 -12 39 -12 73 0 34 5 66 12 73 9 9 7
12 -13 12 -23 0 -24 -2 -21 -65 4 -77 -7 -97 -52 -93 l-31 3 0 78 c0 70 -2 77
-20 77 -18 0 -20 -6 -17 -52z"/>
<path d="M838 1418 c7 -7 12 -39 12 -73 0 -34 -5 -66 -12 -73 -9 -9 -8 -12 8
-12 17 0 19 6 16 72 l-4 72 61 -73 c51 -61 61 -69 62 -49 3 94 6 125 12 136 6
8 2 12 -10 12 -15 0 -18 -7 -15 -44 7 -81 1 -83 -51 -17 -32 41 -55 61 -70 61
-16 0 -18 -3 -9 -12z"/>
<path d="M1038 1423 c17 -7 17 -149 0 -156 -7 -3 3 -5 22 -5 19 0 29 2 23 5
-18 7 -18 149 0 156 6 3 -4 5 -23 5 -19 0 -29 -2 -22 -5z"/>
<path d="M1117 1424 c6 -3 24 -41 39 -85 16 -43 31 -79 34 -79 3 0 16 28 29
63 13 34 30 72 37 85 13 20 13 22 -6 22 -12 0 -19 -4 -16 -8 6 -11 -25 -112
-35 -112 -11 0 -41 90 -35 105 4 11 -2 15 -27 14 -18 0 -27 -3 -20 -5z"/>
<path d="M1305 1345 l0 -85 58 0 c31 0 57 3 57 8 0 4 -18 6 -40 4 l-40 -4 0
37 c0 37 1 37 35 33 21 -2 35 0 35 7 0 7 -14 9 -35 7 -34 -4 -35 -4 -35 33 l0
37 40 -4 c22 -2 40 0 40 4 0 5 -26 8 -57 8 l-58 0 0 -85z"/>
<path d="M1465 1345 c0 -84 0 -85 25 -84 14 0 19 3 13 6 -7 2 -13 20 -13 39 0
47 23 44 58 -6 15 -21 35 -39 45 -40 15 0 12 7 -14 39 -29 37 -30 41 -15 56
35 35 3 75 -60 75 l-39 0 0 -85z m80 40 c0 -25 -4 -30 -27 -33 -26 -3 -28 -1
-28 33 0 34 2 36 28 33 23 -3 27 -8 27 -33z"/>
<path d="M1642 1418 c-22 -22 -13 -46 28 -79 38 -31 54 -69 28 -69 -6 0 -8 -3
-5 -6 11 -12 37 18 37 42 0 17 -12 32 -40 50 -39 26 -52 57 -27 67 6 3 7 6 2
6 -6 1 -16 -4 -23 -11z"/>
<path d="M1696 1423 c5 -5 12 -12 16 -18 4 -6 8 -2 8 8 0 9 -7 17 -17 17 -9 0
-12 -3 -7 -7z"/>
<path d="M1765 1345 c0 -84 0 -85 25 -85 19 0 21 3 12 12 -7 7 -12 39 -12 73
0 34 5 66 12 73 9 9 7 12 -12 12 -25 0 -25 -1 -25 -85z"/>
<path d="M1830 1413 c0 -13 3 -14 12 -5 7 7 22 12 35 12 22 0 23 -4 23 -68 0
-40 -5 -73 -12 -80 -9 -9 -7 -12 13 -12 24 0 24 1 21 80 -3 78 -3 80 20 80 13
0 29 -5 36 -12 9 -9 12 -8 12 5 0 15 -11 17 -80 17 -69 0 -80 -2 -80 -17z"/>
<path d="M2012 1418 c46 -36 72 -120 46 -146 -9 -9 -7 -12 13 -12 22 0 24 3
21 43 -3 34 2 50 27 85 28 38 29 42 11 42 -11 0 -17 -5 -15 -12 3 -7 -3 -24
-13 -36 l-18 -24 -18 26 c-9 15 -14 31 -11 36 4 6 -8 10 -26 10 -28 0 -31 -2
-17 -12z"/>
<path d="M2468 1423 c8 -3 12 -29 12 -78 0 -49 -4 -75 -12 -78 -7 -3 17 -6 55
-6 58 -1 67 1 66 17 0 10 -3 12 -6 5 -2 -8 -22 -13 -44 -13 -38 0 -39 1 -39
36 l0 37 40 -6 c29 -4 40 -2 40 8 0 10 -11 12 -40 8 l-40 -6 0 38 0 38 45 -5
c24 -3 42 -2 39 3 -3 5 -33 9 -67 8 -34 0 -56 -3 -49 -6z"/>
<path d="M2631 1363 c3 -38 2 -76 -3 -85 -8 -16 -2 -18 52 -18 51 0 65 4 85
25 25 24 32 65 19 100 -10 25 -59 45 -111 45 l-48 0 6 -67z m111 40 c24 -27
30 -57 18 -89 -14 -36 -26 -44 -67 -44 l-33 0 0 75 0 75 33 0 c20 0 40 -7 49
-17z"/>
<path d="M2828 1418 c16 -16 16 -130 0 -146 -9 -9 -7 -12 12 -12 25 0 25 1 22
76 -3 56 0 79 10 85 8 6 1 9 -21 9 -27 0 -32 -3 -23 -12z"/>
<path d="M2908 1421 c10 -6 13 -29 10 -85 -3 -71 -2 -76 17 -75 11 0 14 3 8 6
-9 3 -13 27 -13 71 l1 67 42 -50 c23 -27 52 -61 64 -75 l21 -25 4 88 c3 82 2
87 -17 86 -11 0 -14 -3 -7 -6 13 -5 18 -114 5 -112 -5 0 -30 27 -56 60 -32 40
-55 59 -70 59 -16 0 -18 -3 -9 -9z"/>
<path d="M3115 1345 l0 -85 43 0 c75 0 103 31 65 72 -13 14 -14 21 -5 30 34
34 0 68 -65 68 l-38 0 0 -85z m85 56 c7 -15 6 -23 -6 -35 -27 -27 -44 -20 -44
19 0 28 4 35 20 35 10 0 24 -9 30 -19z m5 -96 c0 -25 -4 -30 -27 -33 -26 -3
-28 -1 -28 33 0 34 2 36 28 33 23 -3 27 -8 27 -33z"/>
<path d="M3278 1373 c4 -86 10 -103 38 -114 19 -7 34 -5 55 5 16 8 29 10 29 5
0 -5 6 -9 13 -9 9 0 12 24 12 85 0 84 0 85 -24 85 -20 0 -22 -3 -13 -12 7 -7
12 -37 12 -68 0 -63 -11 -80 -52 -80 -21 0 -31 6 -38 26 -13 33 -13 90 0 115
9 16 7 19 -12 19 -22 0 -23 -3 -20 -57z"/>
<path d="M3475 1345 c0 -79 2 -85 20 -85 18 0 20 5 17 40 -6 56 23 50 61 -12
11 -18 26 -28 40 -27 12 0 17 3 10 5 -7 3 -22 21 -34 40 -16 26 -19 38 -10 47
15 15 14 50 -1 65 -7 7 -32 12 -57 12 l-46 0 0 -85z m85 60 c18 -22 3 -55 -26
-55 -21 0 -24 5 -24 35 0 28 4 35 19 35 10 0 24 -7 31 -15z"/>
<path d="M3672 1408 c-49 -54 -32 -129 35 -147 56 -16 80 -6 85 35 3 26 0 34
-12 34 -13 0 -15 -7 -12 -29 3 -22 0 -30 -15 -33 -68 -15 -111 85 -58 137 13
14 19 25 11 25 -7 0 -22 -10 -34 -22z"/>
<path d="M3759 1421 c7 -5 17 -15 22 -22 6 -10 9 -8 9 9 0 16 -6 22 -22 22
-17 0 -19 -3 -9 -9z"/>
<path d="M3848 1418 c16 -16 16 -130 0 -146 -9 -9 -6 -12 13 -12 23 0 24 3 21
40 l-4 40 47 0 47 0 -4 -40 c-3 -35 -1 -40 17 -40 18 0 20 6 20 85 0 79 -2 85
-20 85 -18 0 -20 -5 -17 -40 l4 -40 -46 0 c-46 0 -46 0 -46 34 0 19 6 37 13
39 6 3 -4 6 -22 6 -27 1 -32 -2 -23 -11z"/>
<path d="M2230 1338 c-29 -31 -24 -72 11 -76 33 -4 61 28 57 65 -4 37 -38 43
-68 11z m50 -12 c0 -37 -10 -56 -31 -56 -21 0 -26 29 -9 61 15 27 40 24 40 -5z"/>
<path d="M1630 1282 c0 -14 6 -22 16 -22 14 0 15 3 3 18 -7 9 -15 19 -16 21
-2 2 -3 -5 -3 -17z"/>
<path d="M2240 1190 c0 -5 7 -10 16 -10 8 0 12 5 9 10 -3 6 -10 10 -16 10 -5
0 -9 -4 -9 -10z"/>
<path d="M93 553 c-61 -3 -73 -7 -72 -21 0 -10 3 -12 6 -4 2 6 16 12 30 12 24
0 25 -1 21 -80 -3 -74 -2 -80 17 -80 19 0 20 6 17 81 l-4 82 31 -5 c21 -3 31
0 31 9 0 7 -1 12 -2 11 -2 -1 -36 -4 -75 -5z"/>
<path d="M2360 541 c-5 -11 -10 -27 -10 -36 0 -8 -7 -18 -16 -22 -11 -4 -12
-8 -4 -13 17 -10 -8 -128 -32 -152 -18 -18 -13 -24 8 -10 17 11 31 43 43 102
7 30 17 58 24 62 9 6 9 8 -1 8 -14 0 -7 45 11 68 6 8 6 12 -1 12 -6 0 -16 -9
-22 -19z"/>
<path d="M2410 550 c0 -5 5 -10 10 -10 6 0 10 5 10 10 0 6 -4 10 -10 10 -5 0
-10 -4 -10 -10z"/>
<path d="M205 465 c0 -79 2 -85 20 -85 18 0 20 5 17 40 l-4 40 47 0 47 0 -4
-40 c-3 -37 -2 -40 22 -39 14 0 19 3 13 6 -17 6 -17 135 -1 151 9 9 4 12 -23
11 -18 0 -28 -3 -21 -6 6 -2 12 -20 12 -39 0 -34 0 -34 -46 -34 l-46 0 4 40
c3 35 1 40 -17 40 -18 0 -20 -6 -20 -85z"/>
<path d="M408 538 c16 -16 16 -130 0 -147 -11 -10 0 -11 51 -9 47 2 66 7 69
18 4 12 2 13 -9 3 -7 -7 -28 -13 -46 -13 -31 0 -33 2 -33 36 0 35 1 36 35 32
21 -2 35 0 35 7 0 7 -14 9 -35 7 -34 -4 -35 -4 -35 33 l0 37 40 -4 c22 -2 40
0 40 4 0 5 -28 8 -62 8 -48 0 -59 -3 -50 -12z"/>
<path d="M638 498 c4 -79 10 -96 37 -114 22 -14 27 -14 55 -1 16 9 30 11 30 6
0 -5 10 -9 22 -9 17 0 19 3 10 12 -7 7 -12 39 -12 73 0 34 5 66 12 73 9 9 7
12 -13 12 -23 0 -24 -2 -21 -65 4 -77 -7 -97 -52 -93 l-31 3 0 78 c0 70 -2 77
-20 77 -18 0 -20 -6 -17 -52z"/>
<path d="M838 538 c7 -7 12 -39 12 -73 0 -34 -5 -66 -12 -73 -9 -9 -8 -12 8
-12 17 0 19 6 16 72 l-4 72 61 -73 c51 -61 61 -69 62 -49 3 94 6 125 12 136 6
8 2 12 -10 12 -15 0 -18 -7 -15 -44 7 -81 1 -83 -51 -17 -32 41 -55 61 -70 61
-16 0 -18 -3 -9 -12z"/>
<path d="M1038 543 c8 -3 12 -29 12 -78 0 -49 -4 -75 -12 -78 -7 -3 3 -5 22
-5 19 0 29 2 23 5 -9 3 -13 29 -13 78 0 49 4 75 13 78 6 3 -4 5 -23 5 -19 0
-29 -2 -22 -5z"/>
<path d="M1117 544 c6 -3 24 -41 39 -85 16 -43 31 -79 34 -79 3 0 16 28 29 63
13 34 30 72 37 85 13 20 13 22 -6 22 -12 0 -19 -4 -16 -8 6 -11 -25 -112 -35
-112 -11 0 -41 90 -35 105 4 11 -2 15 -27 14 -18 0 -27 -3 -20 -5z"/>
<path d="M1305 465 l0 -85 58 0 c31 0 57 3 57 8 0 4 -18 6 -40 4 l-40 -4 0 37
c0 37 1 37 35 33 21 -2 35 0 35 7 0 7 -14 9 -35 7 -34 -4 -35 -4 -35 33 l0 37
40 -4 c22 -2 40 0 40 4 0 5 -26 8 -57 8 l-58 0 0 -85z"/>
<path d="M1465 465 c0 -84 0 -85 25 -84 14 0 19 3 13 6 -7 2 -13 20 -13 39 0
47 23 44 58 -6 15 -21 35 -39 45 -40 15 0 12 7 -14 39 -29 37 -30 41 -15 56
35 35 3 75 -60 75 l-39 0 0 -85z m80 40 c0 -25 -4 -30 -27 -33 -26 -3 -28 -1
-28 33 0 34 2 36 28 33 23 -3 27 -8 27 -33z"/>
<path d="M1642 538 c-22 -22 -13 -46 28 -79 38 -31 54 -69 28 -69 -6 0 -8 -3
-5 -6 11 -12 37 18 37 42 0 17 -12 32 -40 50 -39 26 -52 57 -27 67 6 3 7 6 2
6 -6 1 -16 -4 -23 -11z"/>
<path d="M1696 543 c5 -5 12 -12 16 -18 4 -6 8 -2 8 8 0 9 -7 17 -17 17 -9 0
-12 -3 -7 -7z"/>
<path d="M1765 465 c0 -84 0 -85 25 -85 19 0 21 3 12 12 -7 7 -12 39 -12 73 0
34 5 66 12 73 9 9 7 12 -12 12 -25 0 -25 -1 -25 -85z"/>
<path d="M1830 533 c0 -13 3 -14 12 -5 7 7 22 12 35 12 22 0 23 -4 23 -68 0
-40 -5 -73 -12 -80 -9 -9 -7 -12 13 -12 24 0 24 1 21 80 -3 78 -3 80 20 80 13
0 29 -5 36 -12 9 -9 12 -8 12 5 0 15 -11 17 -80 17 -69 0 -80 -2 -80 -17z"/>
<path d="M2012 538 c46 -36 72 -120 46 -146 -9 -9 -7 -12 13 -12 22 0 24 3 21
43 -3 34 2 50 27 85 28 38 29 42 11 42 -11 0 -17 -5 -15 -12 3 -7 -3 -24 -13
-36 l-18 -24 -18 26 c-9 15 -14 31 -11 36 4 6 -8 10 -26 10 -28 0 -31 -2 -17
-12z"/>
<path d="M2468 543 c8 -3 12 -29 12 -78 0 -49 -4 -75 -12 -78 -7 -3 17 -6 55
-6 58 -1 67 1 66 17 0 10 -3 12 -6 5 -2 -8 -22 -13 -44 -13 -38 0 -39 1 -39
36 l0 37 40 -6 c29 -4 40 -2 40 8 0 10 -11 12 -40 8 l-40 -6 0 38 0 38 45 -5
c24 -3 42 -2 39 3 -3 5 -33 9 -67 8 -34 0 -56 -3 -49 -6z"/>
<path d="M2631 483 c3 -38 2 -76 -3 -85 -8 -16 -2 -18 52 -18 51 0 65 4 85 25
25 24 32 65 19 100 -10 25 -59 45 -111 45 l-48 0 6 -67z m111 40 c24 -27 30
-57 18 -89 -14 -36 -26 -44 -67 -44 l-33 0 0 75 0 75 33 0 c20 0 40 -7 49 -17z"/>
<path d="M2828 538 c16 -16 16 -130 0 -146 -9 -9 -7 -12 12 -12 25 0 25 1 22
76 -3 56 0 79 10 85 8 6 1 9 -21 9 -27 0 -32 -3 -23 -12z"/>
<path d="M2908 541 c10 -6 13 -29 10 -85 -3 -71 -2 -76 17 -75 11 0 14 3 8 6
-9 3 -13 27 -13 71 l1 67 42 -50 c23 -27 52 -61 64 -75 l21 -25 4 88 c3 82 2
87 -17 86 -11 0 -14 -3 -7 -6 13 -5 18 -114 5 -112 -5 0 -30 27 -56 60 -32 40
-55 59 -70 59 -16 0 -18 -3 -9 -9z"/>
<path d="M3115 465 l0 -85 43 0 c75 0 103 31 65 72 -13 14 -14 21 -5 30 34 34
0 68 -65 68 l-38 0 0 -85z m85 56 c7 -15 6 -23 -6 -35 -27 -27 -44 -20 -44 19
0 28 4 35 20 35 10 0 24 -9 30 -19z m5 -96 c0 -25 -4 -30 -27 -33 -26 -3 -28
-1 -28 33 0 34 2 36 28 33 23 -3 27 -8 27 -33z"/>
<path d="M3278 493 c4 -86 10 -103 38 -114 19 -7 34 -5 55 5 16 8 29 10 29 5
0 -5 6 -9 13 -9 9 0 12 24 12 85 0 84 0 85 -24 85 -20 0 -22 -3 -13 -12 7 -7
12 -37 12 -68 0 -63 -11 -80 -52 -80 -21 0 -31 6 -38 26 -13 33 -13 90 0 115
9 16 7 19 -12 19 -22 0 -23 -3 -20 -57z"/>
<path d="M3475 465 c0 -79 2 -85 20 -85 18 0 20 5 17 40 -6 56 23 50 61 -12
11 -18 26 -28 40 -27 12 0 17 3 10 5 -7 3 -22 21 -34 40 -16 26 -19 38 -10 47
15 15 14 50 -1 65 -7 7 -32 12 -57 12 l-46 0 0 -85z m85 60 c18 -22 3 -55 -26
-55 -21 0 -24 5 -24 35 0 28 4 35 19 35 10 0 24 -7 31 -15z"/>
<path d="M3672 528 c-49 -54 -32 -129 35 -147 56 -16 80 -6 85 35 3 26 0 34
-12 34 -13 0 -15 -7 -12 -29 3 -22 0 -30 -15 -33 -68 -15 -111 85 -58 137 13
14 19 25 11 25 -7 0 -22 -10 -34 -22z"/>
<path d="M3759 541 c7 -5 17 -15 22 -22 6 -10 9 -8 9 9 0 16 -6 22 -22 22 -17
0 -19 -3 -9 -9z"/>
<path d="M3848 538 c16 -16 16 -130 0 -146 -9 -9 -6 -12 13 -12 23 0 24 3 21
40 l-4 40 47 0 47 0 -4 -40 c-3 -35 -1 -40 17 -40 18 0 20 6 20 85 0 79 -2 85
-20 85 -18 0 -20 -5 -17 -40 l4 -40 -46 0 c-46 0 -46 0 -46 34 0 19 6 37 13
39 6 3 -4 6 -22 6 -27 1 -32 -2 -23 -11z"/>
<path d="M2230 458 c-29 -31 -24 -72 11 -76 33 -4 61 28 57 65 -4 37 -38 43
-68 11z m50 -12 c0 -37 -10 -56 -31 -56 -21 0 -26 29 -9 61 15 27 40 24 40 -5z"/>
<path d="M1630 402 c0 -14 6 -22 16 -22 14 0 15 3 3 18 -7 9 -15 19 -16 21 -2
2 -3 -5 -3 -17z"/>
<path d="M2240 310 c0 -5 7 -10 16 -10 8 0 12 5 9 10 -3 6 -10 10 -16 10 -5 0
-9 -4 -9 -10z"/>
<path d="M72 205 c-39 -17 -55 -55 -49 -114 7 -59 35 -86 91 -86 47 0 80 21
89 56 7 26 -34 26 -51 -1 -28 -45 -82 -12 -82 49 0 51 29 79 65 63 14 -6 25
-16 25 -22 0 -5 11 -10 24 -10 19 0 23 4 19 19 -12 48 -76 71 -131 46z"/>
<path d="M291 211 c-66 -19 -89 -128 -37 -179 54 -54 155 -26 169 48 17 84
-53 154 -132 131z m69 -51 c24 -24 26 -67 4 -98 -32 -46 -94 -13 -94 50 0 30
31 68 55 68 8 0 24 -9 35 -20z"/>
<path d="M992 205 c-39 -17 -55 -55 -49 -114 7 -59 35 -86 91 -86 47 0 80 21
89 56 7 26 -34 26 -51 -1 -28 -45 -82 -12 -82 49 0 51 29 79 65 63 14 -6 25
-16 25 -22 0 -5 11 -10 24 -10 19 0 23 4 19 19 -12 48 -76 71 -131 46z"/>
<path d="M1461 211 c-66 -19 -89 -128 -37 -179 54 -54 155 -26 169 48 17 84
-53 154 -132 131z m69 -51 c24 -24 26 -67 4 -98 -32 -46 -94 -13 -94 50 0 30
31 68 55 68 8 0 24 -9 35 -20z"/>
<path d="M1855 213 c-33 -8 -45 -24 -45 -57 0 -34 15 -56 37 -56 8 0 29 -7 48
-14 25 -11 33 -19 29 -30 -8 -21 -48 -20 -68 0 -9 8 -25 14 -36 12 -17 -3 -18
-6 -7 -28 22 -43 104 -52 141 -14 19 18 21 69 4 81 -7 4 -33 15 -58 23 -51 17
-61 43 -17 48 18 2 29 -2 33 -12 7 -19 44 -22 44 -3 0 20 -14 35 -43 46 -30
12 -30 12 -62 4z"/>
<path d="M2971 211 c-39 -11 -66 -56 -65 -108 1 -39 6 -51 34 -76 27 -24 38
-28 69 -23 20 4 46 6 59 6 20 0 22 5 22 55 l0 55 -40 0 c-33 0 -40 -3 -40 -20
0 -14 7 -20 21 -20 29 0 19 -23 -15 -35 -24 -8 -31 -6 -47 14 -25 30 -24 76 1
101 24 24 43 25 64 5 16 -17 56 -20 56 -5 0 15 -38 50 -54 50 -8 0 -20 2 -28
4 -7 2 -24 1 -37 -3z"/>
<path d="M450 110 l0 -100 70 0 c63 0 70 2 70 20 0 17 -7 20 -50 20 l-50 0 0
80 c0 73 -2 80 -20 80 -19 0 -20 -7 -20 -100z"/>
<path d="M610 110 l0 -100 70 0 c63 0 70 2 70 20 0 17 -7 20 -50 20 l-50 0 0
80 c0 73 -2 80 -20 80 -19 0 -20 -7 -20 -100z"/>
<path d="M770 110 l0 -100 75 0 c68 0 75 2 75 20 0 18 -7 20 -55 20 -52 0 -55
1 -55 25 0 23 3 25 50 25 38 0 50 4 50 15 0 11 -12 15 -50 15 -47 0 -50 2 -50
25 0 24 3 25 55 25 42 0 55 3 55 15 0 12 -15 15 -75 15 l-75 0 0 -100z"/>
<path d="M1140 190 c0 -16 7 -20 30 -20 l30 0 0 -80 c0 -79 0 -80 25 -80 25 0
25 1 25 79 0 79 0 80 27 83 17 2 29 10 31 21 3 15 -6 17 -82 17 -79 0 -86 -2
-86 -20z"/>
<path d="M1320 110 l0 -100 25 0 25 0 0 100 0 100 -25 0 -25 0 0 -100z"/>
<path d="M1610 110 c0 -99 0 -100 25 -100 22 0 24 4 27 57 l3 58 35 -58 c26
-43 40 -57 57 -57 22 0 23 2 23 100 0 93 -1 100 -20 100 -16 0 -19 -8 -22 -62
l-3 -62 -38 62 c-30 49 -43 62 -63 62 -24 0 -24 -1 -24 -100z"/>
<path d="M2080 110 l0 -100 25 0 c24 0 25 3 26 58 l1 57 15 -57 c13 -50 18
-58 39 -58 18 0 25 7 30 28 19 85 22 89 23 30 1 -55 2 -58 26 -58 l25 0 0 100
0 100 -34 0 c-29 0 -35 -4 -40 -27 -30 -121 -33 -123 -56 -25 -12 50 -13 52
-46 52 l-34 0 0 -100z"/>
<path d="M2354 158 c-9 -29 -25 -74 -35 -100 l-19 -48 24 0 c16 0 27 7 31 20
9 29 80 29 88 0 3 -13 14 -20 30 -20 l24 0 -35 100 c-34 93 -38 100 -63 100
-24 0 -29 -6 -45 -52z m56 -20 c0 -7 3 -23 6 -35 5 -19 2 -23 -15 -23 -22 0
-25 10 -15 48 7 23 24 31 24 10z"/>
<path d="M2510 110 c0 -99 0 -100 25 -100 22 0 24 4 27 57 l3 58 35 -58 c26
-43 40 -57 57 -57 22 0 23 2 23 100 0 93 -1 100 -20 100 -16 0 -19 -8 -22 -62
l-3 -62 -38 62 c-30 49 -43 62 -63 62 -24 0 -24 -1 -24 -100z"/>
<path d="M2761 188 c-22 -59 -61 -170 -61 -174 0 -2 11 -4 24 -4 15 0 26 7 29
20 7 29 77 29 84 0 4 -13 14 -20 30 -20 28 0 28 -6 -16 117 -25 68 -32 78 -55
81 -20 3 -28 -2 -35 -20z m53 -85 c6 -20 4 -23 -18 -23 -30 0 -29 -2 -15 40
12 34 19 30 33 -17z"/>
<path d="M3120 110 l0 -100 81 0 c71 0 80 2 77 18 -2 13 -15 18 -56 20 -48 3
-52 5 -52 28 0 22 4 24 45 24 33 0 45 4 45 15 0 11 -12 15 -45 15 -41 0 -45 2
-45 25 0 23 3 25 50 25 38 0 50 4 50 15 0 12 -15 15 -75 15 l-75 0 0 -100z"/>
<path d="M3300 110 c0 -92 1 -100 19 -100 16 0 20 8 23 37 3 35 6 38 33 38 27
0 30 -3 33 -38 3 -33 6 -37 31 -37 25 0 27 2 23 38 -2 20 -9 42 -14 49 -6 7
-5 14 2 18 5 3 10 22 10 40 0 44 -20 55 -99 55 l-61 0 0 -100z m110 55 c20
-24 4 -45 -35 -45 -30 0 -35 3 -35 23 0 13 3 27 7 30 12 12 50 7 63 -8z"/>
</g>
</svg>
